<svg width="22" height="25" viewBox="0 0 22 25" fill="none" xmlns="http://www.w3.org/2000/svg">
<path d="M10.8908 13.2684C7.20936 13.2684 4.29492 10.2772 4.29492 6.67253C4.29492 3.06783 7.20936 0 10.8908 0C14.5721 0 17.4866 2.99113 17.4866 6.59583C17.4866 10.2005 14.5721 13.2684 10.8908 13.2684ZM10.8908 1.30383C7.97632 1.30383 5.52205 3.68139 5.52205 6.67253C5.52205 9.66366 7.89962 12.0412 10.8908 12.0412C13.8819 12.0412 16.2595 9.66366 16.2595 6.67253C16.2595 3.68139 13.8052 1.30383 10.8908 1.30383Z" fill="black"/>
<path d="M21.7816 24.5429H20.4778V22.8556C20.4778 17.5636 16.1828 13.2687 10.8908 13.2687C5.59879 13.2687 1.30383 17.5636 1.30383 22.8556V24.5429H0V22.8556C0 16.8734 4.90853 11.9648 10.8908 11.9648C16.8731 11.9648 21.7816 16.8734 21.7816 22.8556V24.5429Z" fill="black"/>
</svg>
