<svg width="28" height="25" viewBox="0 0 28 25" fill="none" xmlns="http://www.w3.org/2000/svg">
<path d="M4.73453 1.23141L7.13495 19.2309V20.2061C6.44839 20.4055 5.90101 20.9248 5.66577 21.6001C5.43074 22.2751 5.53692 23.0222 5.95091 23.6048C6.36511 24.1877 7.03559 24.5339 7.75059 24.5339C8.46539 24.5339 9.13606 24.1879 9.55007 23.6051C9.96427 23.0224 10.0707 22.2753 9.83541 21.6003C9.60037 20.9251 9.053 20.4057 8.36644 20.2061V19.8062H21.5229V20.2061C20.8365 20.4055 20.2889 20.9248 20.0539 21.6001C19.8187 22.2751 19.9248 23.0222 20.339 23.6048C20.753 24.1877 21.4235 24.5339 22.1385 24.5339C22.8533 24.5339 23.524 24.1879 23.938 23.6051C24.3522 23.0224 24.4586 22.2753 24.2235 21.6003C23.9883 20.9251 23.4409 20.4057 22.7546 20.2061V19.3004L27.6109 6.13608C27.6804 5.94703 27.6532 5.73611 27.5382 5.57097C27.4229 5.40562 27.2343 5.30728 27.0331 5.30707H6.52016L5.8839 0.53419L5.88411 0.534396C5.84308 0.228436 5.58227 0.000211119 5.27366 0H0.615835C0.275653 0 0 0.275653 0 0.615835C0 0.955811 0.275653 1.23167 0.615835 1.23167L4.73453 1.23141ZM8.72685 22.3154C8.72685 22.5743 8.62397 22.8226 8.44089 23.0058C8.2578 23.1889 8.00957 23.2918 7.75063 23.2918C7.49169 23.2918 7.24324 23.1891 7.06016 23.0058C6.87708 22.8228 6.7742 22.5745 6.7742 22.3156C6.7742 22.0566 6.87708 21.8082 7.06037 21.6251C7.24345 21.442 7.49189 21.3394 7.75084 21.3394C8.00958 21.3398 8.25761 21.4427 8.44046 21.6257C8.62333 21.8086 8.72642 22.0566 8.72683 22.3154L8.72685 22.3154ZM23.1152 22.3154C23.1152 22.5743 23.0123 22.8226 22.8292 23.0058C22.6461 23.1889 22.3979 23.2918 22.1389 23.2918C21.88 23.2918 21.6316 23.1891 21.4485 23.0058C21.2654 22.8228 21.1625 22.5745 21.1625 22.3156C21.1625 22.0566 21.2654 21.8082 21.4487 21.6251C21.6318 21.442 21.8802 21.3394 22.1392 21.3394C22.3979 21.3398 22.6459 21.4427 22.8288 21.6257C23.0116 21.8086 23.1147 22.0566 23.1151 22.3154L23.1152 22.3154ZM26.15 6.53843L21.7097 18.5743H8.29041L6.99688 8.8771H20.5471C20.887 8.8771 21.1627 8.60145 21.1627 8.26148C21.1627 7.92129 20.887 7.64564 20.5471 7.64564H6.83274L6.68512 6.53832L26.15 6.53843Z" fill="black"/>
<path d="M22.2043 8.77649L22.315 8.83174C22.4655 8.88948 22.6321 8.88948 22.7828 8.83174C22.8576 8.79855 22.9263 8.75278 22.9861 8.6965C23.2242 8.4561 23.2242 8.06868 22.9861 7.82811C22.8102 7.65162 22.5455 7.59802 22.315 7.69266C22.2783 7.71121 22.241 7.72956 22.2043 7.74832V7.74812C22.1719 7.77306 22.141 7.79966 22.1117 7.82811C21.8736 8.06871 21.8736 8.45608 22.1117 8.6965C22.141 8.72495 22.1719 8.75175 22.2043 8.77649L22.2043 8.77649Z" fill="black"/>
</svg>
