<svg width="26" height="25" viewBox="0 0 26 25" fill="none" xmlns="http://www.w3.org/2000/svg">
<path d="M18.5239 9.2019C18.508 6.74882 17.5195 4.4024 15.7754 2.67711C14.0313 0.95196 11.6741 -0.0107651 9.221 9.08239e-05C6.76792 0.0109553 4.41926 0.994532 2.69038 2.73494C0.961729 4.47552 -0.00606346 6.83064 -0.000276566 9.2835C0.00550461 11.7368 0.984159 14.0875 2.72107 15.8199C4.4578 17.5523 6.81098 18.5248 9.26425 18.5243C11.728 18.515 14.0875 17.5277 15.8236 15.7796C17.5599 14.0315 18.5311 11.6655 18.5237 9.2019H18.5239ZM17.4487 9.2019H17.4489C17.4322 11.3688 16.5568 13.4407 15.0147 14.9632C13.4727 16.4858 11.3897 17.3346 9.22293 17.3235C7.05582 17.3123 4.98179 16.4425 3.45537 14.9043C1.92894 13.3661 1.07468 11.2854 1.08029 9.11833C1.08572 6.95122 1.95047 4.87491 3.48466 3.34449C5.01898 1.8142 7.0974 0.954697 9.26433 0.954697C11.4427 0.965386 13.5277 1.83964 15.0619 3.38585C16.5963 4.93192 17.4547 7.02367 17.4488 9.20186L17.4487 9.2019Z" fill="black"/>
<path d="M25.1211 24.2386L15.8451 14.998L15.0863 15.7598L24.3623 25.0003L25.1211 24.2386Z" fill="black"/>
</svg>
