<svg width="23" height="21" viewBox="0 0 23 21" fill="none" xmlns="http://www.w3.org/2000/svg">
<path d="M3.93847 1.02436L5.9353 15.9975V16.8087C5.36417 16.9746 4.90883 17.4066 4.71314 17.9683C4.51763 18.5298 4.60595 19.1513 4.95033 19.636C5.29489 20.1208 5.85264 20.4088 6.44742 20.4088C7.04204 20.4088 7.59995 20.121 7.94434 19.6361C8.2889 19.1515 8.37739 18.5299 8.1817 17.9684C7.98619 17.4068 7.53085 16.9747 6.95972 16.8087V16.476H17.9041V16.8087C17.3331 16.9746 16.8776 17.4066 16.6821 17.9683C16.4864 18.5298 16.5747 19.1513 16.9193 19.636C17.2637 20.1208 17.8214 20.4088 18.4162 20.4088C19.0108 20.4088 19.5687 20.121 19.9131 19.6361C20.2577 19.1515 20.3462 18.5299 20.1506 17.9684C19.955 17.4068 19.4996 16.9747 18.9287 16.8087V16.0553L22.9685 5.10438C23.0263 4.94711 23.0037 4.77166 22.908 4.63428C22.8121 4.49673 22.6552 4.41492 22.4878 4.41475H5.42388L4.89459 0.444372L4.89477 0.444544C4.86064 0.190028 4.64368 0.000175622 4.38695 0H0.51229C0.229305 0 0 0.229305 0 0.51229C0 0.795103 0.229305 1.02458 0.51229 1.02458L3.93847 1.02436ZM7.25953 18.5633C7.25953 18.7787 7.17395 18.9852 7.02165 19.1377C6.86935 19.29 6.66286 19.3756 6.44746 19.3756C6.23205 19.3756 6.02538 19.2902 5.87308 19.1377C5.72078 18.9854 5.6352 18.7789 5.6352 18.5635C5.6352 18.3481 5.72078 18.1414 5.87325 17.9891C6.02555 17.8368 6.23222 17.7514 6.44763 17.7514C6.66286 17.7518 6.86919 17.8373 7.0213 17.9896C7.17342 18.1418 7.25918 18.3481 7.25952 18.5633L7.25953 18.5633ZM19.2286 18.5633C19.2286 18.7787 19.143 18.9852 18.9907 19.1377C18.8384 19.29 18.632 19.3756 18.4165 19.3756C18.2011 19.3756 17.9945 19.2902 17.8422 19.1377C17.6899 18.9854 17.6043 18.7789 17.6043 18.5635C17.6043 18.3481 17.6899 18.1414 17.8423 17.9891C17.9946 17.8368 18.2013 17.7514 18.4167 17.7514C18.632 17.7518 18.8383 17.8373 18.9904 17.9896C19.1425 18.1418 19.2283 18.3481 19.2286 18.5633L19.2286 18.5633ZM21.7532 5.43907L18.0595 15.4513H6.89648L5.82044 7.38452H17.0923C17.3751 7.38452 17.6044 7.15522 17.6044 6.87241C17.6044 6.58942 17.3751 6.36012 17.0923 6.36012H5.68389L5.56109 5.43898L21.7532 5.43907Z" fill="black"/>
<path d="M18.4707 7.30036L18.5628 7.34632C18.688 7.39435 18.8266 7.39435 18.9519 7.34632C19.0142 7.31871 19.0713 7.28064 19.121 7.23382C19.3191 7.03384 19.3191 6.71156 19.121 6.51144C18.9748 6.36463 18.7545 6.32004 18.5628 6.39876C18.5323 6.41419 18.5012 6.42946 18.4707 6.44507V6.4449C18.4438 6.46565 18.418 6.48777 18.3937 6.51144C18.1956 6.71159 18.1956 7.03383 18.3937 7.23382C18.418 7.25748 18.4438 7.27978 18.4707 7.30036L18.4707 7.30036Z" fill="black"/>
</svg>
